<?xml version="1.0" encoding="utf-8"?>
<!-- Svg Vector Icons : http://www.onlinewebfonts.com/icon -->
<!DOCTYPE svg PUBLIC "-//W3C//DTD SVG 1.1//EN" "http://www.w3.org/Graphics/SVG/1.1/DTD/svg11.dtd">
<svg version="1.1" xmlns="http://www.w3.org/2000/svg" xmlns:xlink="http://www.w3.org/1999/xlink" x="0px" y="0px" viewBox="0 0 256 256" enable-background="new 0 0 256 256" xml:space="preserve">
<metadata> Svg Vector Icons : http://www.onlinewebfonts.com/icon </metadata>
<g><g><path fill="#000000" d="M126.4,10C61.3,10.9,9.1,64.4,10,129.6c0.9,65.1,54.4,117.3,119.6,116.4c65.2-0.9,117.3-54.4,116.4-119.6C245.1,61.3,191.6,9.1,126.4,10L126.4,10z M139.5,49.3c12,0,15.5,7,15.5,14.9c0,9.9-8,19.1-21.6,19.1c-11.4,0-16.8-5.7-16.4-15.2C117.1,60.3,123.7,49.3,139.5,49.3z M108.8,201.7c-8.2,0-14.2-5-8.5-26.9l9.4-38.8c1.6-6.2,1.9-8.7,0-8.7c-2.5,0-13.1,4.3-19.4,8.5l-4.1-6.7c19.9-16.6,42.9-26.4,52.7-26.4c8.2,0,9.6,9.7,5.5,24.6l-10.8,40.8c-1.9,7.2-1.1,9.7,0.8,9.7c2.5,0,10.5-3,18.4-9.2l4.6,6.2C138.1,194.3,117,201.7,108.8,201.7L108.8,201.7z"/></g></g>
</svg>