<?xml version="1.0" encoding="utf-8"?>
<!-- Svg Vector Icons : http://www.onlinewebfonts.com/icon -->
<!DOCTYPE svg PUBLIC "-//W3C//DTD SVG 1.1//EN" "http://www.w3.org/Graphics/SVG/1.1/DTD/svg11.dtd">
<svg version="1.1" xmlns="http://www.w3.org/2000/svg" xmlns:xlink="http://www.w3.org/1999/xlink" x="0px" y="0px" viewBox="0 0 256 256" enable-background="new 0 0 256 256" xml:space="preserve">
<metadata> Svg Vector Icons : http://www.onlinewebfonts.com/icon </metadata>
<g><g><path fill="#000000" d="M29.1,136H77v-19.1H25.9V84.9h54.2V65.8H10v124.4h73.4v-19.1H29.1V136z M245.9,168c-0.1-0.9-0.2-1.7-0.4-2.2c-0.2-0.5-0.5-0.9-0.8-1.1c-0.3-0.2-0.7-0.3-1.2-0.3c-1,0-2.3,0.6-3.9,1.8c-1.7,1.2-3.8,2.5-6.4,4c-2.6,1.5-5.8,2.9-9.5,4c-3.7,1.2-1.5,0-6.4,0c-5.8,0-11.4-1.2-15.9-3.2c-4.6-2-8.1-3.2-11.2-7.2c-3.2-4-5.6-8.9-7.3-14.8c-1.7-5.9-3.9-11.8-3.9-19.5c0-7.8,2.2-15.6,3.9-21.7c1.8-6,4.2-11.2,7.4-15.4c3.2-4.2,6.5-5.5,11-7.7c4.5-2.2,10.5-3.2,15.9-3.2c5,0,2.8-1.2,6.4,0c3.6,1.2,6.4,2.5,8.9,4c2.5,1.5,4.6,2.8,6.2,4s2.8,1.8,3.7,1.8c0.5,0,0.9-0.1,1.3-0.4c0.4-0.3,0.7-0.7,0.9-1.3s0.4-1.3,0.6-2.2c0.1-0.9,0.2-1.9,0.2-3.2c0-1.1,0-2.1-0.1-2.9c-0.1-0.8-0.2-1.5-0.4-2.1s-0.4-1.1-0.6-1.5c-0.2-0.4-0.8-1.1-1.7-1.9c-0.9-0.8-2.4-1.9-4.6-3.3c-2.2-1.3-4.8-2.5-7.6-3.5c-2.8-1-5.9-1.8-9.3-2.5c-3.4-0.7-0.4-1-4-1c-8,0-15.4,1.4-22,4.3c-6.6,2.9-12.3,7.1-17.1,12.5c-4.8,5.5-8.5,12.2-11.1,20.1c-2.6,7.9-4,16.9-4,26.9c0,9.8,1.2,18.5,3.7,26.1c2.4,7.5,5.9,13.9,10.5,19c4.5,5.1,10,9,16.4,11.7c6.4,2.6,13.7,3.9,21.7,3.9c4.6,0,2.5-0.4,6.4-1.3c3.9-0.8,7.3-1.9,10.4-3.1c3-1.2,5.5-2.5,7.6-3.8c2-1.3,3.4-2.2,4-2.9c0.6-0.6,1.1-1.2,1.3-1.6c0.3-0.4,0.5-0.9,0.6-1.5c0.2-0.6,0.3-1.2,0.3-2c0.1-0.7,0.1-1.6,0.1-2.6C246,170.1,246,168.9,245.9,168z M163.1,65.8H86.6v19.1h28.7v105.3h19.1V84.9h28.7V65.8z"/></g></g>
</svg>