<?xml version="1.0" encoding="utf-8"?>
<!-- Svg Vector Icons : http://www.onlinewebfonts.com/icon -->
<!DOCTYPE svg PUBLIC "-//W3C//DTD SVG 1.1//EN" "http://www.w3.org/Graphics/SVG/1.1/DTD/svg11.dtd">
<svg version="1.1" xmlns="http://www.w3.org/2000/svg" xmlns:xlink="http://www.w3.org/1999/xlink" x="0px" y="0px" viewBox="0 0 256 256" enable-background="new 0 0 256 256" xml:space="preserve">
<metadata> Svg Vector Icons : http://www.onlinewebfonts.com/icon </metadata>
<g><g><g><path fill="#000000" d="M124.9,10.6c-1.1,0.5-17.2,19.5-58,68.4c-44.9,53.8-56.5,68.1-56.8,69.4c-0.4,2.4,0.1,4.7,1.5,6.3c2.2,2.6,3.1,2.7,16,2.7h11.8v41.8c0,46.3-0.1,44,3,45.9c1.3,0.8,2.8,0.9,26.7,0.9h25.2l1.5-1.2c2.8-2.4,2.7-1.6,2.7-32.5c0-31.8,0-32,3.3-38.6c4.8-9.6,15.3-16.1,26.2-16.1c11,0,21.4,6.5,26.2,16.2c3.3,6.6,3.3,6.8,3.3,38.5c0,26.8,0,28.2,0.9,30.1c0.5,1.2,1.5,2.4,2.4,2.9c1.5,0.9,2.3,0.9,26.5,0.9h24.9l1.5-1.2c2.9-2.4,2.7-0.4,2.7-45.8v-41.5h11.8c13,0,13.9-0.1,16-2.7c1.5-1.8,2-4.2,1.4-6.5c-0.3-1.2-4.6-6.7-14.7-18.8l-14.3-17.1l-0.2-34.1c-0.2-33.5-0.2-34.1-1.2-35.4c-2.4-3.1-2.4-3.2-13.6-3.2s-11.2,0-13.6,3.2c-0.9,1.2-1,2-1.2,17.4l-0.2,16.1l-27.1-32.6C139,19,132.2,11.1,131,10.6C129,9.7,126.9,9.8,124.9,10.6z"/></g></g></g>
</svg>